<svg width="306" height="122" viewBox="0 0 306 122" fill="none" xmlns="http://www.w3.org/2000/svg">
<mask id="mask0_1050_1650" style="mask-type:luminance" maskUnits="userSpaceOnUse" x="4" y="17" width="88" height="90">
<path d="M4.1055 17.9758H91.4685V106.432H4.1055V17.9758Z" fill="white"/>
</mask>
<g mask="url(#mask0_1050_1650)">
<mask id="mask1_1050_1650" style="mask-type:luminance" maskUnits="userSpaceOnUse" x="4" y="17" width="88" height="90">
<path d="M28.5855 17.9758H66.9885C80.5099 17.9758 91.4685 28.8986 91.4685 42.3758V82.0322C91.4685 95.5094 80.5099 106.432 66.9885 106.432H28.5855C15.0641 106.432 4.1055 95.5094 4.1055 82.0322V42.3758C4.1055 28.8986 15.0641 17.9758 28.5855 17.9758Z" fill="white"/>
</mask>
<g mask="url(#mask1_1050_1650)">
<path d="M4.1055 17.9758H91.4685V106.432H4.1055V17.9758Z" fill="#0097B2"/>
</g>
</g>
<path d="M64.3212 38.5052C64.9268 35.614 65.1308 35.5505 68.0251 36.224C70.6516 36.8912 73.2781 37.6982 75.9683 37.9015C76.6441 37.9651 77.2497 38.035 77.9254 37.9015C78.3972 37.7617 78.5948 37.3614 78.5948 36.8912C78.5948 36.421 78.2633 36.224 77.8553 36.1541C74.2853 35.3471 70.8556 33.9365 67.2154 33.1994C62.5043 32.259 58.9981 34.0064 56.9134 38.3018C55.9699 40.2462 55.3643 42.3304 54.8926 44.4082C53.8152 49.5805 53.2096 54.8163 53.0056 60.0521C52.9418 61.6597 52.8717 61.6597 51.3927 62.13C49.8436 62.5303 48.3582 63.0005 46.9493 63.8774C46.4074 64.2141 45.4002 64.5445 45.6679 65.288C45.9357 66.0886 46.9493 65.8217 47.7526 65.7518C48.0267 65.7518 48.3582 65.6184 48.6323 65.5549C49.3718 65.3515 50.1113 65.0846 50.8508 64.8813C52.8717 64.3476 52.8717 64.3476 52.9418 66.3618C52.9418 69.9837 53.2797 73.542 53.8152 77.1004C54.3571 80.8557 55.1603 84.6173 56.9772 87.9723C60.0117 93.545 66.9477 95.4258 72.4047 92.1343C76.2424 89.8532 79.6722 87.0319 82.7067 83.8104C83.5163 82.9398 84.1857 81.9994 84.8614 81.1289C85.1993 80.6587 85.2631 80.252 84.8614 79.7818C83.8478 78.4411 83.3123 78.4411 82.1648 79.6484C81.9672 79.8517 81.8269 80.0551 81.6931 80.252C79.1367 83.5435 75.9683 86.1614 72.6023 88.5125C71.5249 89.2495 70.4476 89.9167 69.3064 90.5204C67.4832 91.4608 66.6799 91.124 65.7364 89.2495C65.1308 88.0422 64.7929 86.7651 64.5889 85.4243C63.5116 79.1782 63.3777 72.8685 63.1737 66.4953C63.1099 64.678 63.1099 64.678 65.0607 64.7479C68.5606 64.8178 71.9967 65.0147 75.4966 64.7479C76.7142 64.678 77.9254 64.481 79.0666 64.1442C79.6084 63.9409 80.2778 63.7439 80.0802 63.0005C79.9463 62.3333 79.3407 62.1999 78.7351 62.13C78.5311 62.13 78.2633 62.13 77.9892 62.1999C73.4119 63.0704 68.8984 62.3968 64.3212 61.9266C63.3777 61.8631 63.0398 61.3929 63.0398 60.5224C63.1099 57.9044 63.1099 55.2166 63.1099 52.5288C63.1737 47.8331 63.3777 43.0675 64.3212 38.5052Z" fill="white"/>
<path d="M102.089 83.8103C101.082 76.09 100.005 68.3061 98.9274 60.5222C98.7935 59.0417 98.5194 57.6311 98.3218 56.2205C98.2517 55.4199 97.7799 55.1466 97.0404 55.2864C96.0969 55.4199 95.1534 55.6168 94.2099 55.6867C93.3365 55.8202 93.0688 56.2904 92.9987 57.0974C92.8648 58.2347 92.8648 59.3785 92.9349 60.5222C93.2027 65.6183 93.5405 70.6571 94.28 75.6197C95.0195 80.4553 95.963 85.2209 97.5122 89.9166C98.3218 92.3376 100.069 93.3415 102.497 93.7418C103.906 93.9452 104.518 93.6084 105.258 92.2677C105.927 91.0604 106.335 89.7196 106.603 88.3726C108.152 81.6626 109.025 74.8827 110.103 68.1727C110.307 66.8256 110.237 65.4213 110.842 64.1441C111.314 64.1441 111.454 64.4809 111.652 64.6779C112.863 66.1584 114.278 67.4356 115.764 68.6429C117.511 70.1869 119.735 70.8541 121.89 71.6611C122.292 71.7945 122.897 71.9979 123.172 71.3243C123.439 70.6571 122.897 70.4538 122.496 70.1869C121.954 69.8502 121.489 69.5833 121.017 69.3101C117.982 67.569 115.694 65.1481 114.546 61.7931C114.349 61.1259 114.081 60.5222 113.807 59.8487C112.462 56.0235 112.462 56.087 108.356 56.7606C107.279 56.894 107.005 57.4341 106.871 58.3682C106.131 63.7438 105.392 69.1131 104.582 74.5459C104.047 78.1042 103.505 81.6626 102.427 85.0875C102.293 84.6808 102.16 84.2805 102.089 83.8103Z" fill="#0097B2"/>
<path d="M149.631 68.5095C148.554 67.7661 148.018 67.7661 147.343 68.573C146.667 69.38 146.131 70.187 145.526 70.9876C142.695 74.9526 139.731 78.8414 136.569 82.5331C136.027 83.2067 135.492 83.8103 134.752 84.2805C133.738 84.9541 132.929 84.8842 132.055 83.9438C131.52 83.3401 131.048 82.603 130.844 81.866C129.697 78.2377 128.823 74.546 128.689 70.7208C128.689 69.7803 128.957 69.38 129.901 69.1131C135.154 67.5691 138.048 64.0108 138.858 58.705C139.259 55.7503 138.386 53.2722 135.893 51.5248C133.471 49.8473 130.844 50.1841 128.352 51.5947C126.127 52.9354 124.514 54.8798 123.303 57.161C121.282 61.0561 120.472 65.218 120.268 69.5834C120.204 70.9876 120.408 72.3347 120.676 73.7453C121.282 77.5006 122.627 80.9891 125.119 84.0137C128.218 87.769 135.963 88.9763 139.801 83.8103C143.167 79.3116 146.469 74.7493 149.631 70.0536C149.969 69.5834 150.441 69.0433 149.631 68.5095ZM129.831 60.2491C130.239 58.5716 130.844 56.8941 131.52 55.2865C131.718 54.7464 132.055 54.1427 132.731 54.2126C133.337 54.2762 133.605 54.8163 133.872 55.35C133.872 55.4835 133.942 55.6169 133.942 55.7503C135.084 59.2451 132.999 64.8177 129.831 66.6922C129.563 66.8955 129.225 67.029 128.753 66.8955C128.753 64.6779 129.295 62.4667 129.831 60.2491Z" fill="#0097B2"/>
<path d="M184.65 68.3697C183.502 68.1029 183.369 68.9099 183.101 69.6469C181.686 73.8089 180.136 77.9709 178.045 81.9295C177.376 83.2067 176.7 84.4839 175.757 85.6213C175.221 86.2948 174.679 87.1654 173.672 86.9684C172.525 86.8286 172.595 85.6912 172.257 84.8842C172.187 84.6809 172.187 84.414 172.123 84.1471C171.046 79.3116 171.517 74.4825 171.989 69.6469C172.257 67.029 172.327 64.481 172.053 61.8631C171.919 60.0521 171.581 58.2349 170.638 56.5574C169.363 54.2762 167.138 53.2722 164.511 53.8759C162.089 54.4096 160.336 55.8902 158.857 57.7646C156.906 60.1856 155.491 62.867 154.209 65.6184C153.942 66.1585 153.808 66.7621 153.062 67.3658C153.062 66.5588 153.062 65.9552 153.062 65.3515C153.062 61.9965 153.062 58.6415 153.062 55.2865C153.062 54.8163 153.062 54.2762 152.998 53.7425C152.928 52.9355 152.526 52.5288 151.653 52.5288C150.505 52.5987 149.358 52.5987 148.217 52.5987C147.343 52.5987 146.802 52.999 146.731 53.8759C146.668 54.2762 146.534 54.613 146.464 55.0133C145.048 63.4071 144.647 71.8645 145.048 80.3855C145.119 82.6666 145.52 85.0177 145.858 87.2988C146.126 89.2495 146.4 89.383 148.351 89.2495C149.026 89.1796 149.632 89.1796 150.301 89.1161C151.984 89.1161 151.984 89.0462 152.322 87.3687C153.534 80.9256 155.083 74.6159 157.237 68.4396C158.589 64.6144 160.61 61.0561 163.166 57.9044C163.638 57.3643 164.11 56.5574 164.983 56.7607C165.997 56.964 166.06 57.968 166.194 58.7051C166.736 61.126 166.94 63.5406 166.8 66.0251C166.602 70.5873 166.06 75.1496 166.328 79.7183C166.468 81.9295 166.8 84.1471 167.61 86.225C168.081 87.3687 168.757 88.4426 169.968 89.0462C172.257 90.0502 175.693 89.5164 177.51 87.9025C178.249 87.1654 178.925 86.4283 179.461 85.5578C182.559 80.8557 184.446 75.6199 185.861 70.187C186.199 68.9099 185.861 68.7065 184.65 68.3697Z" fill="#0097B2"/>
<path d="M183.026 79.9851C183.632 83.4735 184.575 86.8984 186.258 90.0501C187.068 91.4607 188.082 92.668 189.695 93.2081C193.806 94.4853 197.644 93.8118 200.137 90.12C200.538 89.5862 200.876 89.0461 201.144 88.5124C204.038 83.1368 205.32 77.2337 207.003 71.4578C207.073 71.1274 207.207 70.7906 206.933 70.5873C206.263 70.0535 205.454 69.7803 204.644 69.8502C203.904 69.9137 203.841 70.5873 203.637 71.1274C202.763 73.6754 201.954 76.2234 201.01 78.7778C199.729 82.1328 198.722 85.5577 196.835 88.5759C196.433 89.2495 196.025 89.8531 195.553 90.4568C194.138 91.9309 193.265 91.7975 192.391 89.9865C192.117 89.4464 191.919 88.8428 191.715 88.2392C191.04 85.151 190.434 82.1328 190.434 79.0447C190.3 73.6055 190.37 68.1727 190.772 62.7335C191.04 57.8345 191.314 52.9989 191.919 48.1698C192.117 46.219 192.117 46.219 194.074 46.0856C199.327 45.8187 204.58 45.5519 209.833 45.2151C210.369 45.2151 210.974 45.0816 211.516 45.0118C211.988 44.9482 212.122 44.6813 212.186 44.2747C212.39 42.864 212.122 42.3938 210.636 42.3303C209.024 42.2604 207.341 42.2604 205.721 42.1969C201.884 42.127 198.116 42.5273 194.272 42.5273C192.455 42.5972 192.455 42.5273 192.589 40.7862C192.659 39.6425 192.729 38.5051 192.729 37.3613C192.729 35.9507 192.589 35.8173 191.244 35.7537C190.032 35.6838 188.821 35.7537 187.61 35.6838C186.596 35.6838 186.125 36.0841 185.787 36.961C185.181 38.5686 184.646 40.2461 184.378 41.9236C184.174 42.864 183.702 43.2707 182.695 43.3343C181.005 43.4677 179.322 43.7409 177.639 44.0078C176.428 44.1412 176.224 44.478 176.224 45.5519C176.224 46.7591 177.104 46.6893 177.843 46.6893C179.125 46.7591 180.336 46.7591 181.617 46.6893C183.364 46.6893 183.364 46.6893 183.167 48.3731C182.491 53.4056 181.949 58.4381 182.083 63.8773C181.815 69.0432 182.153 74.4824 183.026 79.9851Z" fill="#0097B2"/>
<path d="M252.053 69.4436C252.053 70.8542 252.053 72.3347 252.053 73.7454C252.053 77.8375 252.187 81.866 253.264 85.8246C253.602 87.3687 254.208 88.8429 255.215 90.0502C255.955 90.927 256.834 91.5307 257.976 91.734C260.468 92.2042 262.285 91.1939 263.7 89.2495C265.249 87.1018 266.461 84.6809 267.34 82.2028C268.953 77.7676 270.573 73.4086 271.516 68.7764C271.65 68.2363 271.714 67.7661 270.974 67.6327C270.369 67.5691 269.693 67.2324 269.361 68.1029C269.157 68.5731 269.023 69.0433 268.89 69.5135C267.946 73.6056 266.461 77.5007 265.116 81.4593C264.172 84.1471 262.891 86.6952 261.074 88.9128C259.863 90.4568 259.187 90.3869 258.384 88.576C258.109 87.8389 257.778 87.0319 257.708 86.225C257.44 84.6809 257.236 83.2067 257.306 81.6627C257.44 73.3387 258.715 65.0147 259.729 56.7607C260.264 52.5987 261.144 48.5066 261.278 44.3446C261.278 42.3939 261.144 42.1969 259.187 42.0635C258.651 42.0635 258.046 42.0635 257.504 42.0635C255.955 42.0635 255.955 42.0635 255.553 43.4678C253.532 50.8513 251.511 58.2349 249.153 65.5549C247.54 70.5175 245.589 75.2831 243.026 79.7818C242.421 80.7921 241.815 81.7961 240.942 82.5332C239.998 83.3402 239.055 83.2067 238.379 82.1329C238.111 81.6627 237.907 81.1289 237.773 80.5888C237.034 78.3077 236.766 75.9566 236.696 73.6755C236.492 67.0989 237.238 60.6558 238.041 54.1428C238.513 50.2477 238.984 46.4225 239.73 42.5274C239.998 41.0532 239.864 40.9896 238.315 40.9197C237.168 40.8499 236.026 40.8499 234.879 40.8499C231.041 40.9197 230.971 40.9197 230.365 44.6115C229.626 49.7139 228.95 54.8163 228.549 59.9124C228.281 64.481 227.873 69.1132 228.478 73.7454C228.816 76.4967 229.358 79.1782 230.569 81.7961C232.992 87.1018 242.688 87.7055 245.589 82.4696C246.596 80.7222 247.674 78.9749 248.483 77.1004C249.694 74.6159 250.638 71.998 251.511 69.3801C251.715 69.3801 251.849 69.4436 252.053 69.4436Z" fill="#0097B2"/>
<path d="M277.03 61.1259C277.1 58.9083 277.234 56.6907 277.304 54.4794C277.304 53.4691 277.234 52.4651 277.164 51.4548C277.1 50.6542 276.692 50.184 275.819 50.3174C274.875 50.381 273.868 50.4509 272.924 50.5208C271.037 50.7177 271.037 50.7177 270.566 52.5287C270.432 52.9353 270.362 53.2721 270.298 53.6724C269.087 60.7192 268.207 67.8359 267.939 74.9525C267.671 83.2765 268.207 91.5306 269.15 99.7846C269.284 101.195 269.622 102.606 269.96 104.08C270.094 104.957 270.636 105.357 271.579 105.224C272.586 105.154 273.6 105.09 274.607 105.02C276.424 104.887 276.762 104.62 276.494 102.873C275.755 97.0333 276.22 91.2637 276.023 85.4242C275.952 84.147 276.023 84.0771 277.368 84.2106C282.691 84.5473 286.726 82.3361 289.824 78.2376C291.711 75.7532 293.197 73.0717 293.936 70.117C294.338 68.6428 295.077 68.1027 296.493 67.8359C298.514 67.4356 300.534 66.8256 302.555 66.3617C303.161 66.2219 303.429 65.8915 303.365 65.2878C303.225 64.6143 302.893 64.2775 302.147 64.3474C302.013 64.3474 301.816 64.3474 301.612 64.411C300.197 64.6778 298.718 64.8812 297.302 65.1481C295.014 65.6183 295.014 65.6183 294.81 63.2736C294.606 61.1894 294.07 59.3086 292.923 57.5675C290.57 53.8758 286.325 52.9353 282.621 55.2864C281.142 56.2204 279.924 57.4976 278.847 58.9782C278.381 59.7152 277.839 60.3824 277.368 61.1259C277.234 61.1259 277.164 61.1259 277.03 61.1259ZM283.092 58.9782C283.494 58.3046 284.036 57.7645 284.642 57.2943C285.987 56.3602 287.134 56.4937 288.078 57.8344C288.345 58.2347 288.549 58.7049 288.747 59.1751C289.493 61.3927 289.423 63.6739 289.353 65.955C289.353 66.6286 288.951 66.9653 288.345 67.0988C284.775 68.0392 281.339 69.31 278.043 71.1273C279.051 66.6921 280.868 62.7335 283.092 58.9782ZM288.345 70.3839C287.198 74.0757 285.381 77.437 282.487 80.1884C282.085 80.5887 281.613 80.9254 281.142 81.1923C279.79 81.8659 278.713 81.8659 277.769 80.989C276.692 80.0549 276.36 78.9112 276.762 77.5704C277.03 76.827 277.438 76.1598 277.91 75.6197C280.734 72.6015 284.374 71.0574 288.212 69.8501C288.275 70.117 288.416 70.2505 288.345 70.3839Z" fill="#0097B2"/>
</svg>
